<svg width="60" height="45" viewBox="0 0 60 45" fill="none" xmlns="http://www.w3.org/2000/svg">
<path d="M33.5773 22.7549C32.6736 24.7796 31.4438 26.3286 29.7057 27.1363C29.3551 27.2992 29.0823 27.5954 28.943 27.9562C28.8537 28.1875 28.8011 28.4267 28.7857 28.6572C28.731 29.4732 29.513 30.0879 30.3032 29.8785C32.9677 29.1724 35.1716 27.3754 36.5708 23.6727L33.5773 22.7549Z" fill="#FB132B"/>
<path d="M33.5773 22.7549C32.6736 24.7796 31.4438 26.3286 29.7057 27.1363C29.3551 27.2992 29.0823 27.5954 28.943 27.9562C28.8537 28.1875 28.8011 28.4267 28.7857 28.6572C28.731 29.4732 29.513 30.0879 30.3032 29.8785C32.9677 29.1724 35.1716 27.3754 36.5708 23.6727L33.5773 22.7549Z" fill="#FB132B"/>
<path d="M33.5773 22.7549C32.6736 24.7796 31.4438 26.3286 29.7057 27.1363C29.3551 27.2992 29.0823 27.5954 28.943 27.9562C28.8537 28.1875 28.8011 28.4267 28.7857 28.6572C28.731 29.4732 29.513 30.0879 30.3032 29.8785C32.9677 29.1724 35.1716 27.3754 36.5708 23.6727L33.5773 22.7549Z" fill="#FB132B"/>
<path d="M29.4202 29.1711C31.9894 28.4902 34.1301 26.7945 35.5343 23.3547L36.5717 23.6728C35.1725 27.3755 32.9686 29.1725 30.3041 29.8786C29.6991 30.0389 29.1002 29.7153 28.8767 29.1889C29.0504 29.2225 29.2349 29.2202 29.4202 29.1711Z" fill="#D11818"/>
<path d="M29.9922 30.0958C29.6706 30.0958 29.354 29.9851 29.101 29.7764C28.7598 29.495 28.581 29.0827 28.6103 28.6452C28.6273 28.3918 28.6841 28.1385 28.7791 27.8923C28.9369 27.4835 29.2399 27.158 29.6322 26.9757C31.2185 26.2386 32.4565 24.8343 33.4169 22.6826C33.4532 22.6011 33.5445 22.5595 33.6301 22.5856L36.6236 23.5035C36.6703 23.5178 36.709 23.5508 36.7305 23.5947C36.752 23.6386 36.7544 23.6894 36.7371 23.7351C35.4313 27.1909 33.3419 29.2563 30.3494 30.0493C30.2317 30.0805 30.1116 30.0958 29.9922 30.0958ZM33.6751 22.9695C32.6873 25.1223 31.4124 26.5386 29.7811 27.2966C29.4722 27.4401 29.2335 27.6969 29.1089 28.0198C29.0279 28.2297 28.9774 28.4542 28.963 28.6689C28.9414 28.9912 29.0737 29.2954 29.3259 29.5035C29.585 29.7172 29.9338 29.7934 30.2589 29.7074C33.0821 28.9592 35.0724 27.0214 36.3387 23.7862L33.6751 22.9695Z" fill="#000072"/>
<path d="M39.0903 19.3835L39.5322 20.091C40.5937 19.8513 41.5615 19.4224 42.4498 18.8237C42.4515 18.8228 42.4524 18.8219 42.4542 18.821C42.5258 18.7733 42.5947 18.7193 42.6531 18.6548C43.0702 18.1967 42.8846 17.5599 42.4913 17.2459C42.3419 17.1266 42.1325 17.1292 41.9725 17.2318C41.4643 17.559 40.8845 17.7421 40.2526 17.8208L40.1704 17.8517L39.6206 18.0569L39.0903 19.3835Z" fill="white"/>
<path d="M39.0903 19.3837L39.5322 20.0912C40.5937 19.8515 41.5615 19.4226 42.4498 18.8239L42.4701 18.7858C42.615 18.6028 42.6133 18.3189 42.4665 18.1376C42.4303 18.0925 42.3844 18.0527 42.3287 18.0359C42.2253 18.0049 42.1166 18.058 42.022 18.1093C41.7233 18.272 41.4236 18.4347 41.1249 18.5983C41.0277 18.6514 40.926 18.7053 40.8156 18.7195C40.569 18.7505 40.3339 18.563 40.2384 18.333C40.1748 18.1818 40.1607 18.0173 40.1704 17.8519L39.6206 18.0571L39.0903 19.3837Z" fill="#E4E4F2"/>
<path d="M39.5322 20.2682C39.4722 20.2682 39.4151 20.2375 39.3824 20.1851L38.9405 19.4776C38.9106 19.4298 38.9053 19.3705 38.9262 19.3181L39.4565 17.9915C39.475 17.9453 39.5121 17.909 39.5587 17.8916L40.1908 17.6551C40.2038 17.6503 40.2173 17.647 40.231 17.6453C40.875 17.5655 41.4133 17.3818 41.8766 17.0834C42.1064 16.9354 42.3976 16.9452 42.6011 17.1077C42.8639 17.3175 43.0364 17.639 43.0625 17.9676C43.0864 18.2687 42.9899 18.5478 42.7834 18.7746C42.722 18.842 42.6486 18.9036 42.5526 18.9684C41.6313 19.5896 40.6281 20.0255 39.5711 20.2639C39.5582 20.2668 39.5451 20.2682 39.5322 20.2682ZM39.2878 19.3662L39.6151 19.8903C40.5846 19.6563 41.5057 19.2477 42.355 18.675C42.4272 18.6264 42.4802 18.5823 42.5221 18.5364C42.6977 18.3435 42.7212 18.1359 42.7101 17.9956C42.6919 17.7662 42.5656 17.5319 42.3806 17.3842C42.2957 17.3164 42.17 17.3151 42.068 17.3809C41.564 17.7054 40.984 17.906 40.2953 17.9937L39.7558 18.1956L39.2878 19.3662Z" fill="#000072"/>
<path d="M39.7097 19.7374C40.0632 21.3292 39.1379 22.6259 37.2102 22.8465L36.9698 23.1864L35.5557 23.098L34.3184 22.6558L34.0532 20.8871V18.853L35.5557 17.8802L37.6769 17.3495L39.2678 18.5877L39.7097 19.7374Z" fill="white"/>
<path d="M35.6865 19.1272C35.8774 19.2828 36.0445 19.4668 36.1832 19.6711C36.1841 19.6728 36.185 19.6737 36.1868 19.6755C36.428 20.0293 36.5845 20.4431 36.6296 20.8694V20.8721C36.6402 20.9729 36.6446 21.0755 36.6419 21.1772C36.9371 20.8906 37.2527 20.6165 37.6212 20.4352C37.9906 20.2539 38.4228 20.1725 38.8188 20.2857C39.2139 20.3989 39.5577 20.7314 39.6133 21.1391L39.6673 21.1727C39.7654 20.7058 39.7875 20.2141 39.6567 19.756C39.525 19.297 39.2262 18.8742 38.8002 18.6593C38.3309 18.4232 37.7609 18.455 37.2801 18.2534C37.2845 18.8424 36.7126 19.3385 35.6865 19.1272Z" fill="#E4E4F2"/>
<path d="M36.9692 23.3632C36.9655 23.3632 36.9618 23.3631 36.9581 23.3629L35.544 23.2744C35.5275 23.2734 35.5112 23.27 35.4956 23.2644L34.2582 22.8223C34.1969 22.8003 34.1525 22.7464 34.1429 22.6819L33.8777 20.9132C33.8764 20.9045 33.8757 20.8957 33.8757 20.887V18.8529C33.8757 18.7929 33.9061 18.737 33.9565 18.7044L35.459 17.7316C35.4753 17.721 35.4933 17.7132 35.5122 17.7085L37.6334 17.1779C37.6861 17.1647 37.7419 17.1765 37.7847 17.2098L39.3756 18.4479C39.401 18.4677 39.4205 18.494 39.432 18.524L39.874 19.6737C39.8771 19.6819 39.8797 19.6904 39.8815 19.6989C40.0609 20.5064 39.9337 21.245 39.5137 21.8347C39.0561 22.4772 38.2948 22.8834 37.3086 23.0124L37.1134 23.2885C37.0802 23.3355 37.0263 23.3632 36.9692 23.3632ZM35.591 22.923L36.8818 23.0036L37.0652 22.7442C37.0942 22.7031 37.1394 22.6763 37.1894 22.6706C38.1117 22.5651 38.8159 22.2051 39.2258 21.6294C39.5839 21.1267 39.6922 20.4902 39.5393 19.7883L39.1198 18.697L37.6356 17.5419L35.6264 18.0445L34.2293 18.9491V20.8737L34.4768 22.5247L35.591 22.923Z" fill="#000072"/>
<path d="M34.1411 17.173L36.881 17.8805C37.2707 16.4327 37.5801 14.7666 37.4298 13.4718C37.3653 12.9041 37.2124 12.407 36.9393 12.0312C36.759 11.7827 36.4709 11.6332 36.1642 11.6323C35.816 11.6314 35.496 11.7393 35.2061 11.9684C35.093 12.0586 35.0311 12.1983 35.0409 12.3425C35.1346 13.8229 34.895 15.3078 34.2993 16.798C34.2489 16.9227 34.1959 17.0483 34.1411 17.173Z" fill="white"/>
<path d="M34.1411 17.173L36.881 17.8805C37.2707 16.4328 37.5801 14.7666 37.4298 13.4719C37.4086 13.4365 37.3874 13.4002 37.3662 13.3649L37.3432 13.3233C37.3034 13.1031 37.1806 12.8882 36.9809 12.7865C36.782 12.6839 36.5062 12.7255 36.3808 12.9103C36.2791 13.0598 36.2924 13.2552 36.3047 13.4348C36.3578 14.1971 36.3304 14.9647 36.2252 15.7218C36.1916 15.9623 36.1492 16.2037 36.0555 16.4275C36.0078 16.5416 35.945 16.6513 35.8522 16.7317C35.7435 16.8255 35.6012 16.8715 35.4607 16.9033C35.1814 16.9678 34.8862 16.9855 34.6078 16.9174C34.5009 16.8909 34.3966 16.8511 34.2993 16.7981C34.2489 16.9227 34.1959 17.0483 34.1411 17.173Z" fill="#E4E4F2"/>
<path d="M36.8808 18.0573C36.8662 18.0573 36.8514 18.0554 36.8366 18.0516L34.0967 17.3441C34.0465 17.3311 34.0045 17.2967 33.9819 17.2501C33.9592 17.2033 33.9582 17.149 33.9791 17.1016C34.6674 15.5377 34.9651 13.9404 34.864 12.354C34.851 12.151 34.938 11.955 35.0965 11.8296C35.4106 11.5811 35.7682 11.4551 36.1595 11.4551C36.161 11.4551 36.1625 11.4551 36.1641 11.4551C36.5248 11.4559 36.868 11.6322 37.082 11.9266C38.0374 13.2408 37.5927 15.9147 37.0514 17.9263C37.0302 18.0051 36.9589 18.0573 36.8808 18.0573ZM34.3847 17.0531L36.7549 17.6652C37.2554 15.7505 37.6441 13.3011 36.7961 12.1347C36.6482 11.9313 36.4116 11.8094 36.1632 11.8088C36.1619 11.8088 36.1606 11.8088 36.1593 11.8088C35.8453 11.8088 35.5693 11.9064 35.3157 12.1071C35.2482 12.1605 35.2112 12.2444 35.2168 12.3315C35.3174 13.9103 35.0375 15.4978 34.3847 17.0531Z" fill="#000072"/>
<path d="M38.2048 18.5159C38.3763 18.1603 38.5223 17.8134 38.6318 17.4789C38.6829 17.3229 38.8032 17.1995 38.9564 17.1602C40.017 16.8878 41.082 18.4265 40.0234 19.6042C39.768 19.8882 39.3883 20.0303 39.0261 19.9379C38.5366 19.8129 38.2061 19.3327 38.2048 18.5159Z" fill="white"/>
<path d="M38.622 19.5897C39.0037 19.6789 39.4037 19.5419 39.6728 19.2678C40.3645 18.5634 40.1954 17.7253 39.7008 17.2527C40.4094 17.6163 40.8243 18.7133 40.0234 19.6043C39.768 19.8884 39.3883 20.0305 39.0261 19.938C38.8008 19.8805 38.6098 19.7468 38.4685 19.5406C38.5179 19.5603 38.5688 19.5773 38.622 19.5897Z" fill="#E4E4F2"/>
<path d="M39.25 20.1427C39.1602 20.1427 39.0704 20.1317 38.9822 20.1092C38.3771 19.9547 38.0292 19.3741 38.0278 18.5161C38.0278 18.4894 38.0338 18.463 38.0454 18.439C38.2253 18.066 38.3621 17.734 38.4636 17.4238C38.5351 17.2052 38.7028 17.0426 38.9122 16.9888C39.4646 16.8468 40.0609 17.1238 40.3963 17.6777C40.7069 18.1907 40.8065 18.9972 40.1546 19.7224C39.9112 19.9932 39.5811 20.1427 39.25 20.1427ZM38.3817 18.5554C38.3923 19.2169 38.6418 19.6572 39.0696 19.7664C39.3557 19.8395 39.6706 19.7319 39.8917 19.4858C40.4143 18.9046 40.3388 18.2654 40.094 17.8611C39.8399 17.4415 39.4002 17.2287 39.0002 17.3314C38.9097 17.3547 38.8328 17.4322 38.7996 17.5339C38.6965 17.8486 38.5598 18.1832 38.3817 18.5554Z" fill="#000072"/>
<path d="M36.7014 17.4051C36.8868 17.0374 37.0445 16.6786 37.1628 16.3328C37.218 16.1715 37.3481 16.0439 37.5136 16.0033C38.6598 15.7215 39.8107 17.3126 38.6667 18.5303C38.3907 18.8241 37.9803 18.971 37.5889 18.8754C37.06 18.7463 36.7028 18.2496 36.7014 17.4051Z" fill="white"/>
<path d="M37.152 18.5153C37.5645 18.6075 37.9968 18.4658 38.2875 18.1824C39.0351 17.454 38.8523 16.5874 38.3177 16.0987C39.0836 16.4747 39.532 17.6091 38.6664 18.5304C38.3904 18.8241 37.9801 18.971 37.5886 18.8754C37.3452 18.816 37.1388 18.6777 36.9861 18.4645C37.0395 18.4849 37.0945 18.5024 37.152 18.5153Z" fill="#E4E4F2"/>
<path d="M37.8301 19.0811C37.7349 19.0811 37.6398 19.07 37.5463 19.0472C36.898 18.8889 36.5254 18.2904 36.5239 17.4053C36.5239 17.3776 36.5304 17.3501 36.5429 17.3253C36.7372 16.94 36.885 16.5965 36.9949 16.2754C37.0714 16.0518 37.2493 15.8858 37.4707 15.8314C38.0844 15.6807 38.7339 15.9859 39.0871 16.5911C39.3915 17.1127 39.4746 17.9278 38.7947 18.6514C38.5346 18.9282 38.1827 19.0811 37.8301 19.0811ZM36.8778 17.4462C36.8895 18.1321 37.1623 18.5893 37.6301 18.7035C37.9465 18.7807 38.294 18.668 38.5371 18.4091C39.0012 17.9152 39.0927 17.3022 38.7818 16.7695C38.5126 16.3081 38.0081 16.0635 37.555 16.175C37.4526 16.2001 37.3661 16.2826 37.3293 16.39C37.2178 16.7158 37.07 17.0616 36.8778 17.4462Z" fill="#000072"/>
<path d="M35.148 18.6679C35.1497 18.7767 35.262 18.8457 35.3565 18.8996C35.4732 18.966 35.5828 19.042 35.6862 19.1269C36.7123 19.3383 37.2842 18.8422 37.2797 18.2532C37.2356 18.2346 37.1922 18.2142 37.1498 18.1913C37.1507 18.4283 36.9315 18.6202 36.7 18.6706C36.4684 18.721 36.2289 18.6635 35.9991 18.6069C35.8621 18.5733 35.726 18.5397 35.589 18.5061C35.5006 18.4849 35.4078 18.4628 35.3194 18.4822C35.2302 18.5017 35.1462 18.5768 35.148 18.6679Z" fill="#E4E4F2"/>
<path d="M32.9917 21.3294L33.6104 22.3906L35.82 23.0097L36.6154 21.3294C36.634 21.1702 36.6384 21.0181 36.6295 20.8721V20.8695C36.6013 20.4149 36.4439 20.0214 36.1867 19.6756C36.185 19.6738 36.1841 19.6729 36.1832 19.6712C36.0338 19.4722 35.8527 19.2891 35.6432 19.1184C35.6582 19.1219 35.6724 19.1246 35.6865 19.1273C35.5831 19.0424 35.4735 18.9663 35.3568 18.9C35.2623 18.846 35.15 18.7771 35.1483 18.6683C35.1465 18.5772 35.2305 18.502 35.3197 18.4825C35.4081 18.4631 35.5009 18.4852 35.5893 18.5064C35.7263 18.54 35.8624 18.5736 35.9994 18.6072C36.2292 18.6639 36.4687 18.7213 36.7002 18.6709C36.9318 18.6205 37.151 18.4286 37.1501 18.1916C37.1925 18.2146 37.2358 18.2349 37.28 18.2535C37.2783 18.0067 37.1749 17.7432 36.961 17.5088C36.8708 17.4098 36.7391 17.3603 36.6057 17.3691C35.7457 17.4275 34.8787 17.064 34.2644 16.9641C33.9392 16.9119 33.613 17.0295 33.3974 17.278C32.3527 18.4834 33.248 20.4724 32.9917 21.3294Z" fill="white"/>
<path d="M36.6163 21.3296C36.6 20.4699 36.1936 19.7835 35.5326 19.256C35.3967 19.1404 35.5108 18.911 35.6825 18.946C36.0695 19.0254 36.5223 19.0386 36.8396 18.7926C37.2004 18.5233 37.1578 17.9973 36.8732 17.6818C36.8183 17.5976 36.7253 17.536 36.6212 17.5458C35.9067 17.5947 35.188 17.3652 34.5225 17.1987C34.1334 17.0795 33.73 17.1021 33.4784 17.4612C32.9347 18.1554 33.0333 19.1124 33.1321 19.9544C33.1782 20.4238 33.2841 20.9063 33.162 21.3804L33.1453 21.2405L33.764 22.3018L33.659 22.2206L35.8686 22.8396C35.9625 22.866 36.0174 22.9636 35.9911 23.0577C35.9648 23.1517 35.8672 23.2066 35.7732 23.1803L33.5637 22.5612C33.5178 22.5484 33.481 22.5181 33.4586 22.48L32.84 21.4188C32.8143 21.3747 32.8098 21.3243 32.8233 21.2789C32.8739 21.1036 32.8686 20.8825 32.8535 20.6657C32.7973 19.9803 32.6584 19.3091 32.7141 18.6028C32.7848 17.5685 33.4122 16.4652 34.6045 16.8546C35.2674 17.017 35.8875 17.2274 36.5588 17.1943C36.7849 17.1693 37.0184 17.2681 37.147 17.458C37.5546 17.916 37.5788 18.6793 37.0583 19.0705C36.6378 19.3953 36.0905 19.3911 35.6057 19.2914C35.6058 19.2915 35.7555 18.9807 35.7558 18.9816C36.4647 19.5119 36.8853 20.4594 36.6163 21.3296Z" fill="#000072"/>
<path d="M32.4622 21.7716C32.4683 21.8202 32.4798 21.8689 32.4957 21.9175C32.8882 23.0999 36.0372 24.1382 37.3373 23.6668C37.5388 23.5934 37.6643 23.3847 37.6264 23.1734C37.6051 23.0531 37.5556 22.9425 37.5 22.8329C36.9979 22.8718 36.4517 22.8338 35.9046 22.7223C34.8317 22.5039 33.7534 22.0024 32.9924 21.241C32.661 21.2153 32.4622 21.4178 32.4622 21.7716Z" fill="white"/>
<path d="M32.4949 21.9173C32.8873 23.0997 36.0364 24.138 37.3365 23.6666C37.538 23.5932 37.6635 23.3845 37.6255 23.1731C37.6043 23.0528 37.5548 22.9423 37.4991 22.8326C36.9971 22.8715 36.4509 22.8335 35.9038 22.7221C35.9046 22.7242 35.9055 22.7262 35.9063 22.7283C36.0248 23.0234 35.7889 23.3458 35.4715 23.3286C34.4635 23.274 33.1275 22.6607 32.5055 21.7272L32.4949 21.9173Z" fill="#E4E4F2"/>
<path d="M36.5311 23.9621C35.5051 23.9622 34.2037 23.5587 33.3468 23.0387C32.7101 22.6522 32.3434 22.2221 32.2865 21.7947C32.2855 21.787 32.2849 21.7792 32.2849 21.7714C32.2849 21.5391 32.3574 21.3493 32.4944 21.2225C32.6234 21.103 32.7999 21.0481 33.0057 21.0644C33.0477 21.0677 33.0872 21.0859 33.117 21.1157C34.1429 22.1422 35.9399 22.7752 37.4859 22.6563C37.5575 22.6504 37.6249 22.6889 37.6573 22.7528C37.7165 22.8701 37.7748 22.9984 37.8002 23.142C37.8526 23.4385 37.6831 23.7289 37.3973 23.8326C37.151 23.922 36.8547 23.9621 36.5311 23.9621ZM32.6386 21.7594C32.6864 22.0695 33.0024 22.4159 33.5301 22.7362C34.676 23.4316 36.4619 23.7959 37.2767 23.5001C37.3987 23.4558 37.4741 23.3283 37.452 23.2036C37.4412 23.1422 37.4203 23.0818 37.3916 23.0169C35.7799 23.1043 34.0066 22.4706 32.9176 21.4157C32.8404 21.4187 32.779 21.4409 32.7344 21.4821C32.6585 21.5524 32.64 21.6694 32.6386 21.7594Z" fill="#000072"/>
<path d="M35.5404 19.2632C35.3936 19.1022 35.274 18.9178 35.1123 18.7647C35.3425 18.7892 35.5811 18.8631 35.7726 18.9963C35.9721 19.1537 35.7239 19.4393 35.5404 19.2632Z" fill="#000072"/>
<path d="M20.0772 1.56342C19.4311 3.94417 17.3214 6.57167 14.8626 9.25751L9.99803 10.3002L7.43847 10.8494C5.47372 11.296 3.64509 11.2739 1.95874 10.761C4.25669 10.2303 5.49405 8.55003 7.88038 7.40033C6.53695 6.51241 5.02915 5.97914 3.40379 5.70409C3.06618 5.64661 2.80279 5.38128 2.75418 5.04257C2.59245 3.91587 3.38965 2.79801 4.3981 1.97379C4.50151 1.8889 4.62437 1.83318 4.75253 1.81106C4.85947 1.79071 4.97083 1.79513 5.07953 1.82433C6.78797 2.28862 8.41421 3.87873 10.0016 5.98532C11.4828 4.05382 14.0671 2.35936 15.4813 0.413727C15.5246 1.73941 15.24 3.09692 14.6726 4.48098C16.8264 3.59573 18.6639 2.63174 20.0772 1.56342Z" fill="#109B52"/>
<path d="M10.6247 8.09249C10.2623 8.76993 10.1527 9.5411 9.99802 10.2999L7.43847 10.8491C5.47372 11.2957 3.64509 11.2736 1.95874 10.7607C4.25669 10.2301 5.49405 8.54973 7.88037 7.40003C6.53695 6.51211 5.02915 5.97885 3.40379 5.7038C3.06618 5.64632 2.80279 5.38099 2.75418 5.04228C2.59245 3.91557 3.38965 2.79772 4.3981 1.9735C4.50151 1.8886 4.62437 1.83288 4.75253 1.81076C4.15242 2.19192 3.6937 2.89235 3.86782 3.57597C4.03309 4.22333 4.67563 4.6098 5.25808 4.93526C6.66248 5.72148 8.04302 6.55543 9.3334 7.51588C9.7205 7.8033 10.1439 8.11726 10.6247 8.09249Z" fill="#0B8241"/>
<path d="M4.75419 11.3413C3.75973 11.3413 2.80811 11.2041 1.90705 10.9299C1.83047 10.9066 1.77908 10.8347 1.78184 10.7547C1.78457 10.6746 1.8407 10.6064 1.91872 10.5883C3.22879 10.2858 4.20684 9.58425 5.24237 8.84137C5.93499 8.3445 6.64894 7.83239 7.52223 7.38106C6.3226 6.63977 4.96197 6.14717 3.37369 5.87815C2.95814 5.80776 2.63891 5.48187 2.57925 5.06728C2.42922 4.02381 3.05115 2.84615 4.28555 1.83627C4.52156 1.64319 4.83559 1.57505 5.12535 1.65367C6.65883 2.07031 8.21262 3.35688 10.0038 5.69604C10.7174 4.81205 11.6527 3.9696 12.5593 3.15306C13.573 2.23999 14.6212 1.29576 15.3381 0.309391C15.3825 0.248282 15.4609 0.222247 15.5329 0.24435C15.6051 0.266547 15.6552 0.332156 15.6577 0.407673C15.6967 1.60019 15.4718 2.8599 14.9887 4.15752C17.0693 3.27802 18.702 2.38125 19.9704 1.42201C20.0308 1.37644 20.1133 1.37423 20.1759 1.41656C20.2385 1.45894 20.2673 1.53649 20.2475 1.60948C19.5585 4.14881 17.2045 6.96084 14.9927 9.37668C14.9679 9.40378 14.9353 9.42248 14.8994 9.43019L7.4753 11.0221C6.53896 11.2349 5.62992 11.3413 4.75419 11.3413ZM2.62306 10.7542C4.09417 11.089 5.69742 11.0633 7.39905 10.6766L14.7701 9.09613C16.7943 6.88256 18.9288 4.3414 19.7484 2.02106C18.4425 2.93755 16.7974 3.79877 14.7396 4.64453C14.6737 4.67172 14.5979 4.65653 14.5474 4.60603C14.497 4.55562 14.4818 4.47982 14.5089 4.41382C15.0017 3.21086 15.2685 2.04159 15.3043 0.930412C14.5959 1.79451 13.6828 2.61695 12.7957 3.41601C11.8394 4.27745 10.8504 5.16823 10.1415 6.09275C10.1079 6.13656 10.0577 6.16519 10.0005 6.16196C9.9453 6.16173 9.89336 6.13569 9.86014 6.09156C8.05987 3.70245 6.52593 2.4008 5.03267 1.99508C4.8528 1.94615 4.65714 1.98916 4.50925 2.11015C3.37315 3.03961 2.79718 4.0991 2.92918 5.01687C2.96682 5.27874 3.16915 5.48472 3.4327 5.52935C5.18655 5.82644 6.67318 6.39006 7.97753 7.25245C8.03062 7.28753 8.06074 7.34846 8.05646 7.41199C8.05217 7.47551 8.01411 7.53177 7.95676 7.55938C6.98051 8.02976 6.20157 8.58854 5.44831 9.1289C4.55084 9.7727 3.69518 10.3865 2.62306 10.7542Z" fill="#000072"/>
<path d="M15.7112 44.1008C15.6025 44.1371 15.4938 44.1716 15.3842 44.2043C14.4642 44.482 13.4981 43.8735 13.3691 42.9202C13.0058 40.2441 15.1986 34.7777 9.20628 27.387C3.38098 19.5894 2.22406 12.2641 10.0901 6.6925C10.4543 6.45549 10.8166 6.23528 11.1763 6.03098C22.7889 -0.593017 32.1513 8.85039 31.0368 18.5432C35.4771 24.1139 26.0909 40.68 15.7112 44.1008Z" fill="#FB132B"/>
<g opacity="0.5">
<path d="M31.0366 18.5432C32.1511 8.85038 22.7887 -0.593005 11.1761 6.03097C10.8164 6.23527 10.454 6.45549 10.0899 6.69249C10.0266 6.73728 9.96564 6.78251 9.90356 6.82753C10.152 6.67249 10.3996 6.52457 10.6458 6.38473C22.2584 -0.239261 31.6208 9.20414 30.5063 18.8969C34.2955 23.6507 28.0157 36.4114 19.6422 42.1775C28.2778 36.5971 34.9053 23.3968 31.0366 18.5432Z" fill="white"/>
</g>
<path d="M23.5474 36.4545C23.3581 36.3773 23.1478 36.3526 22.9458 36.3837C23.5709 36.8117 24.2114 37.2551 24.6335 37.8844C24.8722 37.6348 25.1109 37.3853 25.3496 37.1358C25.3722 37.1121 25.3957 37.0869 25.4031 37.055C25.4151 37.0032 25.3816 36.953 25.3498 36.9104C25.1558 36.6501 24.9498 36.3798 24.6557 36.2424C24.3439 36.0967 23.9557 36.1301 23.6734 36.3271" fill="#D11818"/>
<path d="M15.7112 44.1009C15.6025 44.1372 15.4938 44.1717 15.3842 44.2044C14.4642 44.4821 13.4981 43.8736 13.3691 42.9203C13.0058 40.2442 15.1986 34.7778 9.20629 27.3871C5.52789 22.4633 3.71092 17.7278 4.85177 13.5032C5.93102 9.50692 9.81231 6.87755 10.0901 6.6926C11.1771 5.96891 12.189 5.53706 12.9183 5.27759C12.0348 5.5962 10.2003 6.40552 9.07282 8.27739C8.40018 9.39408 8.26446 10.4903 8.13861 11.5372C7.54115 16.5074 8.78115 21.6784 11.567 25.8367C13.4099 28.5877 13.5214 28.2194 14.0514 29.8315C14.9299 32.5035 15.1374 37.1858 14.2441 40.6527C14.1102 41.1725 13.7294 42.527 14.4209 43.3943C14.7864 43.8529 15.3327 44.0258 15.7112 44.1009Z" fill="#D11818"/>
<path d="M14.929 44.4483C14.5951 44.4483 14.2643 44.3528 13.976 44.1673C13.5469 43.8912 13.2617 43.4455 13.1938 42.9444C13.1106 42.3309 13.1575 41.582 13.2118 40.715C13.3995 37.7181 13.6832 33.189 9.06925 27.4985C5.41927 22.613 3.87029 18.2384 4.46105 14.4908C4.9353 11.4823 6.79489 8.81012 9.98822 6.54826C12.7647 4.74323 15.5474 3.77019 18.265 3.65217C20.6996 3.54613 23.0593 4.15541 25.0889 5.41339C27.1857 6.7131 28.8758 8.64328 29.9763 10.9952C31.0723 13.3373 31.502 15.9277 31.2208 18.4911C32.5645 20.2362 32.7026 23.1256 31.6079 26.6402C30.506 30.1779 28.2464 34.0705 25.4085 37.3197C22.317 40.8594 18.7752 43.3644 15.4356 44.3734C15.2694 44.4235 15.0988 44.4483 14.929 44.4483ZM18.7835 3.97995C16.3801 3.97995 13.4829 4.69821 10.1866 6.84093C7.07995 9.04163 5.26911 11.6353 4.81028 14.5459C4.23492 18.1957 5.76171 22.4805 9.34812 27.2812C14.0447 33.0734 13.7558 37.6853 13.5647 40.7371C13.5115 41.5854 13.4657 42.318 13.5441 42.8969C13.5981 43.2952 13.8252 43.6497 14.1672 43.8698C14.5149 44.0935 14.9399 44.1535 15.3333 44.0347C22.4832 41.8746 29.1728 33.2692 31.2704 26.5349C32.3413 23.0966 32.2094 20.2976 30.8988 18.6536C30.8695 18.6168 30.856 18.5698 30.8614 18.5231C31.4466 13.4336 29.0519 8.28606 24.9026 5.7141C23.5858 4.89786 21.5001 3.97995 18.7835 3.97995Z" fill="#000072"/>
<path d="M25.6461 34.8158C25.0919 34.6248 24.5466 34.4753 24.0101 34.3701C20.7974 33.7351 17.9055 34.6442 15.3937 37.3805C15.361 35.7515 15.4361 34.3073 15.6058 33.0285C16.807 23.938 22.7622 23.2499 28.6511 24.6455C26.3319 27.1182 25.6187 30.7088 25.6461 34.8158Z" fill="#000072"/>
<path d="M15.3936 37.5574C15.3726 37.5574 15.3514 37.5537 15.3311 37.546C15.2636 37.5205 15.2184 37.4564 15.2169 37.3841C15.1849 35.7883 15.2567 34.3151 15.4305 33.0053C15.9144 29.343 17.2192 26.7555 19.3085 25.3147C21.5345 23.7798 24.6037 23.5045 28.6918 24.4733C28.7531 24.4879 28.8021 24.5341 28.8203 24.5945C28.8384 24.6549 28.8231 24.7205 28.7799 24.7665C26.7313 26.9508 25.7916 30.1437 25.8228 34.8146C25.8232 34.872 25.7957 34.926 25.7491 34.9595C25.7025 34.993 25.6427 35.0018 25.5884 34.9831C25.0385 34.7935 24.496 34.6457 23.976 34.5437C20.7533 33.9067 17.9095 34.9014 15.5238 37.5002C15.4897 37.5374 15.4421 37.5574 15.3936 37.5574ZM24.38 24.2621C22.4207 24.2621 20.8101 24.7089 19.5092 25.606C17.5056 26.9876 16.2512 29.4927 15.781 33.0517C15.6254 34.2248 15.5526 35.5322 15.5642 36.9439C17.9762 34.485 20.827 33.5606 24.0443 34.1966C24.5055 34.2871 24.9836 34.4124 25.4685 34.5699C25.4715 30.0913 26.3803 26.9552 28.3174 24.75C26.8726 24.425 25.5626 24.2621 24.38 24.2621Z" fill="#000072"/>
<path d="M28.2459 24.372C28.7892 24.4674 29.2981 24.6835 29.8007 24.9112C29.3832 24.907 28.9743 24.872 28.5651 24.8092C28.3865 24.7587 27.9866 24.7718 28.0527 24.4931C28.0797 24.4099 28.1623 24.3604 28.2459 24.372Z" fill="#000072"/>
<path d="M25.0644 34.6302C26.456 34.9551 27.3476 35.9673 26.7859 36.8877C26.6584 37.0965 26.4119 37.2015 26.1699 37.166C24.9298 36.9843 23.94 36.3271 22.729 36.4079L25.0644 34.6302Z" fill="#FB132B"/>
<path d="M25.1045 34.4579C25.8695 34.6363 26.675 35.0386 27.0217 35.791C27.1066 36.0013 27.1547 36.2376 27.1172 36.4631C27.0679 36.8384 26.8431 37.2357 26.453 37.3137C26.2092 37.3754 25.9178 37.275 25.679 37.2267C24.6839 36.9647 23.7689 36.4823 22.729 36.4078C23.8459 36.1775 24.8999 36.7956 25.9757 36.9736L26.2002 37.0079C26.5494 37.0541 26.7384 36.7158 26.7712 36.4185C26.843 35.8494 26.3233 35.3782 25.8599 35.1239C25.5993 34.9808 25.3148 34.8765 25.0223 34.8019C24.8017 34.7407 24.8788 34.4131 25.1045 34.4579Z" fill="#000072"/>
<path d="M24.0101 34.3702C23.1228 34.1951 22.2602 34.1376 21.4223 34.2039C19.2286 34.3764 17.2117 35.4005 15.3937 37.3806C15.361 35.7516 15.4361 34.3074 15.6058 33.0286C16.251 32.1699 17.37 31.5941 18.6082 31.7622C19.0015 31.8161 19.4072 31.9443 19.8129 32.1628C21.7573 30.5709 24.8091 33.041 24.0101 34.3702Z" fill="#FF67A0"/>
<path d="M21.4223 34.2038C19.2286 34.3763 17.2117 35.4004 15.3937 37.3805C15.361 35.7515 15.4361 34.3073 15.6058 33.0285C16.251 32.1698 17.37 31.594 18.6082 31.7621C18.1495 31.7665 17.6996 31.8505 17.3408 32.122C16.8892 32.4634 16.6709 33.086 16.8105 33.6343C16.8511 33.7944 16.921 33.9509 17.0368 34.0676C17.2701 34.3046 17.636 34.34 17.9683 34.3338C18.6224 34.3214 19.2693 34.2003 19.9216 34.1428C20.4218 34.0986 20.9353 34.095 21.4223 34.2038Z" fill="#EA478A"/>
<path d="M15.3936 37.5575C15.3726 37.5575 15.3514 37.5538 15.3311 37.5461C15.2636 37.5205 15.2184 37.4564 15.2169 37.3842C15.1849 35.7884 15.2567 34.3151 15.4305 33.0053C15.4345 32.9752 15.4462 32.9466 15.4644 32.9223C16.2984 31.8121 17.9986 31.0506 19.7935 31.9535C20.98 31.0678 22.5068 31.5162 23.4453 32.3289C24.2436 33.02 24.5247 33.8571 24.1615 34.4613C24.1231 34.5252 24.0489 34.5581 23.9757 34.5437C20.753 33.9066 17.9094 34.9015 15.5238 37.5003C15.4897 37.5374 15.4421 37.5575 15.3936 37.5575ZM15.7748 33.0985C15.6234 34.2594 15.5527 35.551 15.5642 36.9439C17.9431 34.5189 20.7489 33.5863 23.9118 34.1713C24.1088 33.6728 23.7189 33.0336 23.214 32.5964C22.3592 31.8563 20.9653 31.4477 19.9247 32.2997C19.8694 32.345 19.7921 32.3525 19.7291 32.3186C18.0998 31.4428 16.5469 32.1041 15.7748 33.0985Z" fill="#000072"/>
<path d="M19.4411 31.7981C20.0334 31.9968 20.5252 32.4846 20.7852 33.0473C20.6759 32.9415 20.5595 32.8454 20.4422 32.7538C20.0891 32.4833 19.6863 32.2959 19.2833 32.1147C19.0714 32.0046 19.2243 31.702 19.4411 31.7981Z" fill="#000072"/>
<path d="M20.6668 20.2243C20.6668 22.0438 19.4304 23.5193 17.9035 23.5193C16.3776 23.5193 15.1411 22.0438 15.1411 20.2243C15.1411 19.36 15.4188 18.5737 15.8759 17.9865C15.8759 17.9865 16.5851 17.1509 17.2878 17.6503C18.4624 18.5967 20.6413 19.7821 20.6413 19.7821C20.6586 19.9262 20.6668 20.0742 20.6668 20.2243Z" fill="#000072"/>
<path d="M18.4551 22.0922C18.992 22.0922 19.4273 21.5125 19.4273 20.7975C19.4273 20.0824 18.992 19.5027 18.4551 19.5027C17.9182 19.5027 17.4829 20.0824 17.4829 20.7975C17.4829 21.5125 17.9182 22.0922 18.4551 22.0922Z" fill="white"/>
<g opacity="0.2">
<path d="M16.7876 19.904C17.0356 19.904 17.2366 19.6363 17.2366 19.3061C17.2366 18.9758 17.0356 18.7081 16.7876 18.7081C16.5396 18.7081 16.3386 18.9758 16.3386 19.3061C16.3386 19.6363 16.5396 19.904 16.7876 19.904Z" fill="white"/>
</g>
<path d="M14.7495 17.8617C15.3615 17.7326 15.9516 17.6804 16.4791 17.8243C17.0074 17.9573 17.4709 18.2478 17.9318 18.5986C18.3964 18.9436 18.8567 19.3554 19.4954 19.6387C19.5775 19.6714 19.6584 19.7049 19.7467 19.7293L19.8125 19.7489C19.8388 19.756 19.8606 19.7605 19.8833 19.7654C19.9278 19.7746 19.9705 19.7817 20.0133 19.7881C20.1833 19.8138 20.3536 19.8219 20.5258 19.8048C20.6972 19.7875 20.8712 19.7444 21.0297 19.6624C21.1867 19.5814 21.3298 19.4559 21.396 19.298C21.2318 19.3406 21.0887 19.3425 20.9505 19.3317C20.8127 19.3203 20.68 19.2955 20.5478 19.2659C20.416 19.2358 20.2838 19.2015 20.1572 19.1595C20.1259 19.1488 20.0948 19.1375 20.0662 19.1257C20.0523 19.12 20.0376 19.1138 20.0279 19.1087L19.9871 19.0876C19.9319 19.061 19.8759 19.0278 19.8206 18.9952C19.5996 18.8536 19.3777 18.6733 19.1482 18.4847C18.9152 18.2984 18.6751 18.1032 18.4082 17.9267C18.1444 17.7479 17.8573 17.5836 17.5454 17.4582C17.2353 17.3317 16.8967 17.2504 16.5569 17.2384C16.2173 17.2232 15.8804 17.2786 15.5751 17.3909C15.2695 17.5035 14.9913 17.6621 14.7495 17.8617Z" fill="#000072"/>
<path d="M25.5498 19.6937C25.5498 21.5133 26.4931 22.9888 27.658 22.9888C28.8222 22.9888 29.7655 21.5133 29.7655 19.6937C29.7655 18.8295 29.5536 18.0432 29.2049 17.456C29.2049 17.456 28.6638 16.6204 28.1277 17.1198C27.2316 18.0661 25.5693 19.2516 25.5693 19.2516C25.5561 19.3956 25.5498 19.5437 25.5498 19.6937Z" fill="#000072"/>
<path d="M27.2383 21.5615C27.6479 21.5615 27.98 20.9818 27.98 20.2667C27.98 19.5516 27.6479 18.972 27.2383 18.972C26.8287 18.972 26.4966 19.5516 26.4966 20.2667C26.4966 20.9818 26.8287 21.5615 27.2383 21.5615Z" fill="white"/>
<g opacity="0.2">
<path d="M28.511 19.3732C28.7002 19.3732 28.8535 19.1055 28.8535 18.7753C28.8535 18.445 28.7002 18.1773 28.511 18.1773C28.3218 18.1773 28.1685 18.445 28.1685 18.7753C28.1685 19.1055 28.3218 19.3732 28.511 19.3732Z" fill="white"/>
</g>
<path d="M30.0651 17.3309C29.5982 17.2018 29.148 17.1496 28.7456 17.2935C28.3425 17.4265 27.9889 17.717 27.6373 18.0678C27.2829 18.4128 26.9316 18.8245 26.4444 19.1079C26.3818 19.1405 26.32 19.1741 26.2527 19.1985L26.2025 19.218C26.1824 19.2251 26.1658 19.2297 26.1485 19.2345C26.1145 19.2437 26.0819 19.2509 26.0493 19.2573C25.9196 19.283 25.7897 19.2911 25.6583 19.274C25.5275 19.2567 25.3948 19.2136 25.2738 19.1316C25.1541 19.0506 25.0448 18.9251 24.9944 18.7672C25.1197 18.8098 25.2288 18.8116 25.3343 18.8008C25.4394 18.7895 25.5406 18.7647 25.6415 18.7351C25.742 18.705 25.8429 18.6707 25.9395 18.6287C25.9634 18.618 25.9871 18.6066 26.0089 18.5949C26.0195 18.5892 26.0307 18.583 26.0381 18.5779L26.0693 18.5568C26.1114 18.5302 26.1541 18.497 26.1962 18.4643C26.3649 18.3228 26.5342 18.1425 26.7092 17.9539C26.887 17.7676 27.0702 17.5724 27.2738 17.3959C27.4751 17.2171 27.6941 17.0528 27.9321 16.9274C28.1687 16.8009 28.4269 16.7196 28.6862 16.7076C28.9453 16.6924 29.2023 16.7477 29.4352 16.8601C29.6685 16.9727 29.8807 17.1313 30.0651 17.3309Z" fill="#000072"/>
<g opacity="0.3">
<path d="M24.2223 7.6841C24.4459 7.88068 24.6702 8.09063 24.794 8.36147C24.9178 8.63232 24.9186 8.98044 24.7198 9.20212C24.6167 9.31713 24.472 9.38673 24.3249 9.43385C23.7885 9.6057 23.2057 9.50948 22.6575 9.37989C21.4941 9.10482 20.3312 8.66457 19.4652 7.84001C19.1728 7.56162 18.9112 7.22769 18.8246 6.83324C18.5249 5.46887 20.1446 5.50405 20.9979 5.75464C22.2121 6.11122 23.2811 6.85678 24.2223 7.6841Z" fill="white"/>
</g>
<g opacity="0.3">
<path d="M26.6601 10.3818V10.3818C26.7004 10.4813 26.7306 10.5979 26.6802 10.6927C26.6439 10.7609 26.5727 10.8029 26.5017 10.8331C26.2222 10.9521 25.8885 10.9351 25.6224 10.7886C25.1872 10.5488 24.8218 9.76662 25.4232 9.49671C25.956 9.25763 26.4835 9.94566 26.6601 10.3818Z" fill="white"/>
</g>
<path d="M9.7254 24.6116C10.6291 26.6363 11.8589 28.1853 13.597 28.993C13.9476 29.1559 14.2204 29.4521 14.3597 29.8129C14.449 30.0442 14.5016 30.2834 14.517 30.5139C14.5717 31.3299 13.7896 31.9446 12.9995 31.7352C10.335 31.0291 8.13106 29.2322 6.73193 25.5294L9.7254 24.6116Z" fill="#FB132B"/>
<path d="M9.7254 24.6116C10.6291 26.6363 11.8589 28.1853 13.597 28.993C13.9476 29.1559 14.2204 29.4521 14.3597 29.8129C14.449 30.0442 14.5016 30.2834 14.517 30.5139C14.5717 31.3299 13.7896 31.9446 12.9995 31.7352C10.335 31.0291 8.13106 29.2322 6.73193 25.5294L9.7254 24.6116Z" fill="#FB132B"/>
<path d="M9.7254 24.6116C10.6291 26.6363 11.8589 28.1853 13.597 28.993C13.9476 29.1559 14.2204 29.4521 14.3597 29.8129C14.449 30.0442 14.5016 30.2834 14.517 30.5139C14.5717 31.3299 13.7896 31.9446 12.9995 31.7352C10.335 31.0291 8.13106 29.2322 6.73193 25.5294L9.7254 24.6116Z" fill="#FB132B"/>
<path d="M13.8834 31.0277C11.3141 30.3469 9.17347 28.6512 7.7693 25.2114L6.73193 25.5294C8.13106 29.2322 10.335 31.0291 12.9995 31.7352C13.6045 31.8955 14.2033 31.572 14.4269 31.0456C14.2531 31.0791 14.0687 31.0768 13.8834 31.0277Z" fill="#D11818"/>
<path d="M13.3115 31.953C13.1922 31.953 13.0721 31.9377 12.9543 31.9065C9.96181 31.1135 7.87238 29.0481 6.56661 25.5923C6.54931 25.5466 6.55174 25.4957 6.57324 25.4519C6.59474 25.408 6.63344 25.375 6.68013 25.3606L9.6736 24.4428C9.75914 24.4166 9.85038 24.4583 9.88682 24.5398C10.8472 26.6915 12.0852 28.0958 13.6715 28.8329C14.0637 29.0152 14.3667 29.3407 14.5245 29.7494C14.6196 29.9956 14.6764 30.2489 14.6934 30.5023C14.7227 30.9398 14.5438 31.3521 14.2026 31.6336C13.9498 31.8422 13.6331 31.953 13.3115 31.953ZM6.96503 25.6433C8.23121 28.8785 10.2216 30.8163 13.0448 31.5645C13.3698 31.6506 13.7187 31.5744 13.9778 31.3606C14.23 31.1526 14.3623 30.8484 14.3407 30.526C14.3263 30.3113 14.2758 30.0868 14.1948 29.8769C14.0701 29.5541 13.8314 29.2972 13.5226 29.1537C11.8913 28.3956 10.6164 26.9795 9.62858 24.8266L6.96503 25.6433Z" fill="#000072"/>
<path d="M4.21357 21.2401L3.77167 21.9476C2.71019 21.7079 1.74241 21.279 0.854147 20.6803C0.852369 20.6794 0.851501 20.6785 0.849723 20.6776C0.778139 20.6299 0.709201 20.5759 0.650871 20.5114C0.233694 20.0533 0.41931 19.4165 0.812607 19.1025C0.961977 18.9832 1.17144 18.9858 1.33141 19.0884C1.83961 19.4156 2.41939 19.5987 3.05134 19.6774L3.13353 19.7083L3.68327 19.9135L4.21357 21.2401Z" fill="white"/>
<path d="M4.21344 21.2398L3.77154 21.9473C2.71006 21.7077 1.74228 21.2788 0.854016 20.68L0.833692 20.642C0.688746 20.4589 0.690503 20.175 0.837226 19.9938C0.873472 19.9487 0.919419 19.9089 0.975102 19.8921C1.07851 19.8611 1.18722 19.9142 1.2818 19.9654C1.58054 20.1282 1.88015 20.2909 2.17887 20.4545C2.27609 20.5076 2.37772 20.5615 2.48822 20.5757C2.73481 20.6066 2.96991 20.4191 3.06536 20.1892C3.12898 20.038 3.14312 19.8735 3.1334 19.7081L3.68314 19.9133L4.21344 21.2398Z" fill="#E4E4F2"/>
<path d="M3.77169 22.1244C3.75877 22.1244 3.74576 22.123 3.73279 22.1201C2.67576 21.8817 1.67262 21.4459 0.751272 20.8246C0.654994 20.7596 0.581652 20.6981 0.520429 20.6308C0.313939 20.404 0.217434 20.1249 0.241371 19.8238C0.267426 19.4952 0.43992 19.1737 0.702736 18.9639C0.906314 18.8013 1.19751 18.7917 1.42724 18.9397C1.89055 19.238 2.42881 19.4218 3.07286 19.5015C3.08657 19.5032 3.10009 19.5065 3.11304 19.5113L3.74514 19.7478C3.79173 19.7652 3.82886 19.8015 3.84737 19.8478L4.37766 21.1743C4.39855 21.2267 4.39329 21.286 4.3634 21.3338L3.92149 22.0413C3.88876 22.0937 3.8317 22.1244 3.77169 22.1244ZM1.07599 19.1887C1.02018 19.1887 0.966422 19.2059 0.923256 19.2404C0.738226 19.3882 0.611998 19.6224 0.593771 19.8518C0.582654 19.992 0.606231 20.1997 0.781807 20.3926C0.823555 20.4385 0.876611 20.4825 0.9488 20.5312C1.79815 21.104 2.71931 21.5125 3.68874 21.7466L4.01609 21.2224L3.54812 20.0518L3.00861 19.8499C2.31987 19.7621 1.73984 19.5616 1.23593 19.2371C1.18573 19.2048 1.12988 19.1887 1.07599 19.1887Z" fill="#000072"/>
<path d="M3.59382 21.594C3.24029 23.1859 4.16562 24.4825 6.09337 24.7031L6.33368 25.0431L7.7478 24.9546L8.98515 24.5125L9.25029 22.7437V20.7096L7.74778 19.7368L5.6266 19.2062L4.03571 20.4443L3.59382 21.594Z" fill="white"/>
<path d="M7.61773 20.9838C7.42682 21.1394 7.25979 21.3234 7.12103 21.5277C7.12014 21.5294 7.11925 21.5303 7.11749 21.5321C6.87621 21.8858 6.71977 22.2997 6.6747 22.726V22.7287C6.66409 22.8295 6.65966 22.9321 6.66233 23.0338C6.36713 22.7472 6.0516 22.4731 5.68305 22.2918C5.31361 22.1105 4.88142 22.0291 4.48546 22.1423C4.09039 22.2555 3.74659 22.588 3.69091 22.9957L3.63698 23.0293C3.53889 22.5624 3.51679 22.0707 3.64759 21.6126C3.77928 21.1536 4.07802 20.7308 4.50401 20.5159C4.97332 20.2798 5.54338 20.3116 6.02418 20.11C6.01978 20.699 6.59162 21.1951 7.61773 20.9838Z" fill="#E4E4F2"/>
<path d="M6.33446 25.2198C6.27734 25.2198 6.22347 25.1921 6.19019 25.145L5.99501 24.8689C5.00884 24.74 4.24747 24.3337 3.78993 23.6913C3.36993 23.1016 3.2427 22.363 3.42206 21.5554C3.42395 21.5469 3.42649 21.5385 3.42962 21.5303L3.87153 20.3806C3.88307 20.3506 3.90258 20.3242 3.92799 20.3044L5.51891 19.0664C5.56178 19.033 5.61773 19.0213 5.67027 19.0344L7.79144 19.565C7.81031 19.5697 7.82829 19.5776 7.84463 19.5881L9.34716 20.5609C9.39749 20.5935 9.42789 20.6494 9.42789 20.7094V22.7435C9.42789 22.7523 9.42725 22.7611 9.42591 22.7697L9.16075 24.5385C9.1511 24.603 9.10677 24.6569 9.04541 24.6788L7.80804 25.121C7.79244 25.1266 7.77612 25.13 7.7596 25.131L6.3455 25.2194C6.34183 25.2196 6.33814 25.2198 6.33446 25.2198ZM3.76438 21.6448C3.61146 22.3468 3.71978 22.9832 4.07785 23.486C4.48779 24.0616 5.19195 24.4216 6.11422 24.5272C6.16423 24.5329 6.2094 24.5597 6.23846 24.6008L6.42189 24.8602L7.71267 24.7795L8.82686 24.3813L9.07436 22.7303V20.8057L7.67724 19.9011L5.66804 19.3985L4.18387 20.5535L3.76438 21.6448Z" fill="#000072"/>
<path d="M9.16188 19.029L6.42202 19.7365C6.03226 18.2888 5.72291 16.6226 5.87317 15.3279C5.9377 14.7601 6.09058 14.2631 6.36369 13.8873C6.54399 13.6388 6.8321 13.4893 7.1388 13.4884C7.48702 13.4875 7.80698 13.5954 8.09687 13.8245C8.20999 13.9147 8.27186 14.0544 8.26214 14.1986C8.16846 15.679 8.40798 17.1639 9.00368 18.6541C9.05405 18.7788 9.10707 18.9043 9.16188 19.029Z" fill="white"/>
<path d="M9.16188 19.029L6.42202 19.7365C6.03226 18.2887 5.72291 16.6226 5.87317 15.3278C5.89438 15.2924 5.9156 15.2562 5.93681 15.2208L5.95978 15.1793C5.99954 14.959 6.12241 14.7441 6.32215 14.6424C6.521 14.5398 6.79677 14.5814 6.92226 14.7662C7.0239 14.9157 7.01063 15.1112 6.99826 15.2907C6.94523 16.053 6.97263 16.8207 7.07781 17.5777C7.11139 17.8183 7.15382 18.0597 7.2475 18.2834C7.29523 18.3975 7.35798 18.5072 7.45078 18.5877C7.55948 18.6814 7.70178 18.7274 7.84232 18.7592C8.1216 18.8238 8.41681 18.8415 8.6952 18.7734C8.80214 18.7468 8.90644 18.707 9.00366 18.654C9.05405 18.7787 9.10707 18.9043 9.16188 19.029Z" fill="#E4E4F2"/>
<path d="M6.42261 19.9134C6.34459 19.9134 6.27328 19.8613 6.25206 19.7825C5.46477 16.8564 5.45448 14.8378 6.22147 13.7828C6.43552 13.4884 6.77866 13.3121 7.13945 13.3112C7.14098 13.3112 7.14255 13.3112 7.14403 13.3112C7.53532 13.3112 7.89294 13.4372 8.20705 13.6858C8.36557 13.8112 8.45247 14.0073 8.43952 14.2102C8.3384 15.7965 8.63614 17.3938 9.32443 18.9577C9.34533 19.0052 9.34432 19.0595 9.32167 19.1062C9.29908 19.1529 9.25705 19.1873 9.20681 19.2002L6.46693 19.9078C6.45214 19.9116 6.43724 19.9134 6.42261 19.9134ZM7.14418 13.665C7.14289 13.665 7.14164 13.665 7.14034 13.665C6.89191 13.6656 6.6553 13.7875 6.50741 13.9909C5.6594 15.1572 6.04807 17.6066 6.54855 19.5214L8.91879 18.9093C8.26597 17.3539 7.98608 15.7664 8.0867 14.1877C8.09228 14.1005 8.05528 14.0166 7.9878 13.9632C7.73415 13.7626 7.45814 13.665 7.14418 13.665Z" fill="#000072"/>
<path d="M5.09797 20.3725C4.92646 20.0169 4.78053 19.67 4.67102 19.3355C4.61995 19.1795 4.49957 19.0562 4.34645 19.0168C3.28575 18.7444 2.22078 20.2831 3.27944 21.4607C3.53482 21.7448 3.91451 21.8869 4.27672 21.7945C4.76618 21.6696 5.09671 21.1893 5.09797 20.3725Z" fill="white"/>
<path d="M4.68068 21.4461C4.29905 21.5353 3.89901 21.3983 3.62993 21.1242C2.93818 20.4197 3.10734 19.5817 3.60197 19.1091C2.89327 19.4727 2.4784 20.5697 3.27936 21.4607C3.53475 21.7448 3.91443 21.8869 4.27665 21.7944C4.50191 21.7369 4.69288 21.6032 4.83421 21.397C4.78479 21.4167 4.73387 21.4337 4.68068 21.4461Z" fill="#E4E4F2"/>
<path d="M4.05177 21.9995C3.72058 21.9995 3.39061 21.85 3.14715 21.5792C2.49522 20.854 2.59481 20.0475 2.90538 19.5346C3.24086 18.9806 3.83711 18.7036 4.38955 18.8456C4.59896 18.8994 4.76665 19.062 4.83814 19.2806C4.93977 19.591 5.07654 19.9231 5.25628 20.2958C5.26785 20.3198 5.2739 20.3462 5.27386 20.3729C5.27252 21.2309 4.92473 21.8115 4.31958 21.966C4.23137 21.9885 4.1415 21.9995 4.05177 21.9995ZM4.09806 19.1627C3.75921 19.1627 3.41922 19.3686 3.20775 19.7179C2.96294 20.1222 2.8875 20.7614 3.41005 21.3426C3.63125 21.5887 3.94609 21.6962 4.23222 21.6232C4.65997 21.514 4.90944 21.0737 4.92001 20.4122C4.74212 20.0402 4.60533 19.7057 4.50219 19.3907C4.46893 19.289 4.39211 19.2115 4.30165 19.1882C4.23455 19.171 4.16633 19.1627 4.09806 19.1627Z" fill="#000072"/>
<path d="M6.60048 19.2617C6.41513 18.894 6.25742 18.5352 6.1391 18.1894C6.08391 18.0281 5.95383 17.9005 5.78835 17.8599C4.64207 17.5781 3.49121 19.1692 4.63527 20.3869C4.91124 20.6807 5.32157 20.8276 5.713 20.732C6.24192 20.6028 6.59912 20.1062 6.60048 19.2617Z" fill="white"/>
<path d="M6.14954 20.3719C5.73712 20.4641 5.3048 20.3224 5.01402 20.039C4.26647 19.3106 4.44927 18.444 4.98381 17.9553C4.21796 18.3313 3.7696 19.4657 4.63517 20.387C4.91115 20.6807 5.32148 20.8276 5.7129 20.732C5.95634 20.6726 6.16272 20.5343 6.31545 20.3211C6.26206 20.3415 6.20704 20.359 6.14954 20.3719Z" fill="#E4E4F2"/>
<path d="M5.47022 20.9378C5.1176 20.9378 4.76565 20.785 4.50559 20.5081C3.82579 19.7845 3.90883 18.9693 4.21326 18.4477C4.5665 17.8425 5.21605 17.5371 5.82966 17.6881C6.05108 17.7425 6.22898 17.9085 6.30547 18.1321C6.41526 18.453 6.56312 18.7965 6.75747 19.182C6.76997 19.2068 6.77647 19.2342 6.77644 19.262C6.77496 20.1471 6.40235 20.7455 5.75404 20.9038C5.6606 20.9267 5.56538 20.9378 5.47022 20.9378ZM5.5229 18.005C5.13539 18.005 4.74432 18.2393 4.51855 18.6261C4.20761 19.1588 4.29909 19.7718 4.76319 20.2658C5.00636 20.5247 5.35419 20.6374 5.67019 20.5602C6.13802 20.446 6.41084 19.9887 6.42247 19.3029C6.23019 18.9182 6.08238 18.5723 5.97097 18.2467C5.9342 18.1392 5.84775 18.0568 5.74529 18.0316C5.6721 18.0136 5.59758 18.005 5.5229 18.005Z" fill="#000072"/>
<path d="M8.15503 20.5246C8.15327 20.6334 8.04102 20.7024 7.94644 20.7563C7.82978 20.8226 7.72018 20.8987 7.61677 20.9836C6.59065 21.195 6.01881 20.6988 6.02322 20.1098C6.06741 20.0913 6.11072 20.0709 6.15315 20.0479C6.15226 20.285 6.37146 20.4769 6.60302 20.5273C6.83458 20.5777 7.0741 20.5202 7.30389 20.4636C7.44089 20.43 7.57699 20.3964 7.71399 20.3628C7.80237 20.3416 7.89518 20.3195 7.98356 20.3389C8.07282 20.3583 8.15679 20.4335 8.15503 20.5246Z" fill="#E4E4F2"/>
<path d="M10.3115 23.186L9.69282 24.2472L7.48326 24.8663L6.68781 23.186C6.66925 23.0268 6.66484 22.8747 6.67367 22.7287V22.7261C6.70194 22.2715 6.85927 21.878 7.11647 21.5322C7.11825 21.5304 7.11912 21.5295 7.12 21.5278C7.26937 21.3288 7.45055 21.1457 7.66002 20.975C7.64499 20.9785 7.63085 20.9812 7.61673 20.9839C7.72013 20.899 7.82972 20.8229 7.9464 20.7566C8.04097 20.7026 8.15321 20.6337 8.15499 20.5249C8.15676 20.4338 8.0728 20.3586 7.98353 20.3391C7.89516 20.3197 7.80234 20.3418 7.71397 20.363C7.57698 20.3966 7.44087 20.4302 7.30386 20.4638C7.07408 20.5205 6.83456 20.5779 6.60299 20.5275C6.37143 20.4771 6.15224 20.2852 6.15313 20.0482C6.1107 20.0712 6.0674 20.0915 6.02319 20.1101C6.02497 19.8633 6.12838 19.5998 6.34226 19.3654C6.43241 19.2664 6.5641 19.2169 6.69755 19.2257C7.55753 19.2841 8.42455 18.9206 9.0388 18.8207C9.36405 18.7685 9.69019 18.8861 9.90583 19.1346C10.9505 20.34 10.0552 22.329 10.3115 23.186Z" fill="white"/>
<path d="M6.68806 23.1857C6.41928 22.3153 6.83958 21.3681 7.54858 20.8377C7.54879 20.8366 7.69848 21.1477 7.69859 21.1474C7.21393 21.2472 6.66648 21.2514 6.24601 20.9266C5.72607 20.5359 5.74933 19.7717 6.1574 19.3141C6.28623 19.1245 6.51925 19.0252 6.74559 19.0504C7.41696 19.0835 8.03685 18.8731 8.69986 18.7107C9.89136 18.3214 10.5199 19.4241 10.5902 20.4589C10.6459 21.1652 10.5071 21.8364 10.4508 22.5218C10.4358 22.7386 10.4304 22.9598 10.481 23.135C10.4955 23.1834 10.488 23.2343 10.4644 23.2749L9.84572 24.3361C9.82171 24.3773 9.78319 24.4053 9.74067 24.4173L7.53111 25.0364C7.4371 25.0628 7.33954 25.0078 7.31322 24.9138C7.2869 24.8197 7.34177 24.7221 7.43578 24.6958L9.64534 24.0767L9.54034 24.1579L10.159 23.0966L10.1424 23.2365C10.0203 22.7626 10.1261 22.2798 10.1722 21.8105C10.2712 20.9687 10.3696 20.0112 9.82592 19.3172C9.5737 18.9585 9.17172 18.9353 8.78179 19.0548C8.11628 19.2213 7.3977 19.4507 6.6831 19.4019C6.57958 19.3927 6.48537 19.4531 6.43116 19.5379C6.14684 19.8536 6.1036 20.3792 6.46472 20.6487C6.78239 20.8947 7.23467 20.8815 7.62186 20.8021C7.71939 20.7846 7.81262 20.85 7.82941 20.9477C7.84034 21.011 7.81627 21.0725 7.77152 21.1122C7.6184 21.2432 7.47047 21.3777 7.33806 21.5252C6.91826 21.9731 6.70522 22.5742 6.68806 23.1857Z" fill="#000072"/>
<path d="M10.8404 23.6276C10.8342 23.6763 10.8227 23.7249 10.8068 23.7736C10.4144 24.956 7.26531 25.9942 5.96521 25.5229C5.76369 25.4495 5.6382 25.2407 5.6762 25.0294C5.69742 24.9091 5.74692 24.7985 5.80258 24.6889C6.3046 24.7278 6.8508 24.6898 7.39789 24.5783C8.47086 24.3599 9.54912 23.8584 10.3101 23.097C10.6415 23.0714 10.8404 23.2739 10.8404 23.6276Z" fill="white"/>
<path d="M10.8068 23.7739C10.4144 24.9563 7.26531 25.9946 5.96521 25.5232C5.76369 25.4498 5.6382 25.2411 5.6762 25.0297C5.69742 24.9095 5.74692 24.7989 5.80258 24.6892C6.3046 24.7282 6.8508 24.6901 7.39789 24.5787C7.39704 24.5808 7.39621 24.5828 7.39538 24.5849C7.27694 24.8801 7.51279 25.2024 7.83016 25.1852C8.83816 25.1306 10.1742 24.5173 10.7962 23.5838L10.8068 23.7739Z" fill="#E4E4F2"/>
<path d="M6.77197 25.8186C6.44825 25.8186 6.15205 25.7785 5.90579 25.6892C5.61997 25.5854 5.45046 25.295 5.50287 24.9985C5.52819 24.855 5.58652 24.7266 5.64574 24.6093C5.67807 24.5454 5.74529 24.5067 5.81712 24.5128C7.36348 24.632 9.16028 23.9986 10.1861 22.9722C10.2158 22.9424 10.2553 22.9242 10.2973 22.921C10.5028 22.9048 10.6796 22.9595 10.8086 23.079C10.9456 23.2059 11.0181 23.3957 11.0181 23.6279C11.0181 23.6357 11.0176 23.6435 11.0166 23.6513C10.9596 24.0786 10.593 24.5088 9.95626 24.8952C9.09938 25.4152 7.7979 25.8186 6.77197 25.8186ZM5.91132 24.8734C5.88271 24.9384 5.86182 24.9987 5.85098 25.06C5.82894 25.1849 5.9043 25.3123 6.02627 25.3566C6.84115 25.6522 8.62694 25.2881 9.77291 24.5927C10.3007 24.2724 10.6167 23.926 10.6645 23.616C10.663 23.5259 10.6445 23.4089 10.5685 23.3386C10.524 23.2974 10.4626 23.2752 10.3853 23.2722C9.29642 24.327 7.52236 24.9607 5.91132 24.8734Z" fill="#000072"/>
<path d="M7.53123 20.852C7.7225 20.7194 7.96066 20.6457 8.19037 20.6212C8.1074 20.7028 8.03482 20.7877 7.96537 20.8715L7.86537 20.9994C7.78359 21.1189 7.64899 21.2497 7.51136 21.1239C7.43189 21.0487 7.44195 20.915 7.53123 20.852Z" fill="#000072"/>
<path d="M20.5188 29.6864C22.0103 27.6966 24.8213 26.4745 28.4766 26.785C29.886 26.9047 31.2658 27.2568 32.5759 27.7902C34.9394 28.7526 37.2064 29.7864 39.1013 27.8568C39.6742 27.2735 40.0876 26.5503 40.3235 25.7673C41.7209 21.1309 44.5697 17.6599 50.5689 19.6045C49.0136 19.6272 47.6889 20.0121 46.5917 20.7542C52.1598 19.7814 57.7607 22.6628 59.4071 27.2102C57.4039 25.8054 55.2885 25.3446 53.0436 25.972C54.1751 26.0018 55.1682 26.2618 55.9602 26.8564C48.5361 28.802 49.5083 34.4621 48.978 35.8771C49.6493 35.6035 50.1361 34.924 50.4805 33.9314C50.9617 39.0215 47.326 41.6863 42.2349 41.5513C39.1209 41.4687 36.1255 40.3263 33.6992 38.3713C28.0684 33.8342 27.1251 27.636 20.1653 30.7477C20.9969 29.909 21.954 29.2663 23.0819 28.8905C22.2575 28.8998 21.4091 29.1137 20.5188 29.6864Z" fill="#F95427"/>
<path d="M42.5972 41.7329C42.4757 41.7329 42.3534 41.7313 42.2301 41.728C39.1316 41.6459 36.0626 40.5027 33.5884 38.509C31.8512 37.1093 30.5508 35.5456 29.4034 34.166C26.815 31.0535 24.9447 28.8047 20.2374 30.9091L19.3728 31.2957L20.0398 30.6231C20.5869 30.0713 21.1614 29.6256 21.7758 29.2779C21.3805 29.4051 20.9952 29.5903 20.6144 29.8352L19.7878 30.367L20.3774 29.5803C22.0168 27.393 24.9746 26.3098 28.4915 26.6087C29.8765 26.7264 31.2731 27.0688 32.6425 27.6264L32.9116 27.7363C35.1351 28.6456 37.2354 29.5045 38.9752 27.7328C39.5144 27.1837 39.9221 26.4864 40.1543 25.7163C41.0823 22.6371 42.5121 20.5734 44.4038 19.5824C46.0956 18.6961 48.1882 18.6469 50.6234 19.4362L51.6399 19.7658L50.5715 19.7814C49.4124 19.7983 48.3734 20.0243 47.471 20.4546C52.7759 19.9177 57.976 22.7383 59.5733 27.1499L59.7639 27.6764L59.3057 27.355C57.6652 26.2045 55.9602 25.7241 54.2231 25.9201C54.9394 26.0628 55.5484 26.3261 56.0663 26.7149L56.3591 26.9348L56.005 27.0275C50.0653 28.5841 49.6036 32.5841 49.3555 34.7331C49.3206 35.0354 49.29 35.3005 49.2496 35.5247C49.6842 35.212 50.0411 34.6586 50.3135 33.8734L50.58 33.1055L50.6565 33.9148C50.8659 36.1299 50.304 38.0209 49.0316 39.3836C47.6109 40.9049 45.3358 41.7329 42.5972 41.7329ZM23.5125 29.7353C26.1788 29.7353 27.7811 31.6622 29.6752 33.9397C30.8119 35.3066 32.1004 36.8559 33.8101 38.2336C36.2243 40.1788 39.218 41.2943 42.2395 41.3745C45.0392 41.4491 47.3597 40.6559 48.7733 39.142C49.8269 38.0136 50.3638 36.4933 50.3452 34.712C50.0029 35.3879 49.5737 35.8253 49.0446 36.0409L48.6707 36.1932L48.8124 35.815C48.9025 35.5746 48.9497 35.1658 49.0043 34.6925C49.2568 32.5053 49.7222 28.4729 55.5427 26.7881C54.8738 26.3852 54.0504 26.1755 53.0389 26.1488L51.8645 26.1179L52.996 25.8017C55.0615 25.2243 57.0896 25.5438 59.032 26.7503C57.1761 22.5512 51.8536 20.0142 46.622 20.9285L45.808 21.0706L46.4926 20.6077C47.3658 20.0172 48.3879 19.6458 49.5413 19.4988C47.615 19.0415 45.9452 19.1742 44.5677 19.8959C42.7633 20.8411 41.3923 22.8337 40.4928 25.8184C40.2441 26.6433 39.8066 27.391 39.2273 27.9808C37.3213 29.9218 35.0115 28.9773 32.7778 28.0638L32.5093 27.9541C31.1728 27.4099 29.811 27.0759 28.4616 26.9612C25.4781 26.7078 22.9191 27.4751 21.2811 29.0835C21.858 28.8425 22.4526 28.7207 23.0799 28.7136L24.2107 28.7008L23.1377 29.0583C22.3765 29.3119 21.679 29.6921 21.0252 30.2117C21.9548 29.883 22.7746 29.7353 23.5125 29.7353Z" fill="#000072"/>
<path d="M24.1431 28.5366C30.2458 27.9346 29.2432 36.0315 39.0201 38.836C39.9428 39.1007 40.9011 39.2368 41.8596 39.1846C44.7485 39.0273 47.5485 37.3594 47.8296 33.4891C47.9646 31.318 48.3995 29.296 49.9508 27.8291C49.1928 27.9696 48.5286 28.2538 48.0948 28.8904C48.4599 26.5553 49.9563 24.938 52.4255 23.9378C49.2436 22.7736 46.408 23.008 44.0292 25.0875C44.0451 24.2548 44.1985 23.5039 44.5595 22.8766C42.2262 24.0793 43.2302 27.9989 39.924 30.1073C38.2358 31.1838 36.1336 31.3642 34.2457 30.698C30.2027 29.2713 28.7627 26.5663 24.1431 28.5366Z" fill="#FEBD1C"/>
<path d="M14.9281 44.6843C14.545 44.6843 14.1713 44.5741 13.8475 44.3658C13.36 44.0523 13.0362 43.5457 12.9589 42.9759C12.8726 42.3392 12.9201 41.5798 12.9752 40.7004C13.1155 38.4606 13.3073 35.3995 11.4699 31.6341C9.24037 30.6367 7.60955 28.806 6.48931 26.0431C6.23697 26.0244 6.01386 25.9803 5.82463 25.9116C5.4309 25.7688 5.19756 25.368 5.26953 24.9584C4.54894 24.7462 3.97377 24.3588 3.5963 23.8287C3.26543 23.3642 3.09774 22.8049 3.10646 22.2011C2.23013 21.9408 1.39379 21.5442 0.617765 21.0208C0.505567 20.9452 0.418706 20.872 0.34438 20.7904C0.0926821 20.5139 -0.0248663 20.1733 0.00438371 19.8053C0.0355623 19.4128 0.24105 19.0293 0.553952 18.7795C0.836923 18.5537 1.23865 18.5383 1.5536 18.7412C1.92057 18.9775 2.34061 19.1365 2.83409 19.2255C3.10617 18.8778 3.48317 18.6497 3.88449 18.5892C3.9202 18.4979 3.96218 18.4108 4.00998 18.3288C4.08143 18.2064 4.1654 18.0925 4.26043 17.9892C4.06214 16.7597 4.0508 15.5708 4.22685 14.4537C4.38323 13.4617 4.69158 12.4934 5.14483 11.57C5.01078 11.5749 4.88016 11.5774 4.7539 11.5774C3.7382 11.5774 2.7572 11.4356 1.8381 11.1558C1.65942 11.1014 1.53911 10.9331 1.54558 10.7463C1.55195 10.5597 1.68342 10.3999 1.86533 10.3579C3.12922 10.066 4.08848 9.37788 5.10408 8.64937C5.70283 8.21989 6.31852 7.77823 7.04128 7.37177C5.95597 6.76249 4.73868 6.34889 3.33405 6.11092C2.81695 6.02339 2.41962 5.61741 2.34526 5.10072C2.18314 3.97324 2.83583 2.71664 4.13585 1.65309C4.4309 1.41158 4.82391 1.32631 5.18724 1.42542C6.72284 1.84258 8.2602 3.08224 10.0102 5.31833C10.7062 4.50373 11.5667 3.72873 12.4011 2.97717C13.4058 2.07218 14.4446 1.13644 15.1468 0.170205C15.2505 0.0275281 15.4335 -0.033543 15.602 0.0181882C15.7706 0.0700706 15.8878 0.223336 15.8936 0.399668C15.9284 1.46392 15.7585 2.58115 15.3879 3.72793C17.2185 2.92381 18.6745 2.10538 19.8278 1.23325C19.9688 1.12685 20.1616 1.12167 20.3079 1.22047C20.4544 1.31962 20.5216 1.50066 20.4753 1.67119C20.3252 2.22433 20.0885 2.81903 19.7704 3.44307C21.7085 3.59365 23.5826 4.20197 25.2124 5.2122C27.3483 6.53615 29.0693 8.50114 30.1893 10.8947C31.2897 13.2463 31.7301 15.8473 31.4647 18.4231C31.9715 19.11 32.3075 19.9572 32.4669 20.9488C32.5167 20.9189 32.5698 20.8942 32.6256 20.875C32.6249 20.816 32.6221 20.7517 32.6172 20.6813C32.601 20.4844 32.5768 20.2803 32.5534 20.083C32.4961 19.6011 32.437 19.1027 32.4779 18.5834C32.5409 17.6621 33.028 16.6661 33.9515 16.5495C34.4894 15.167 34.717 13.7611 34.6283 12.3685C34.6104 12.088 34.7306 11.8171 34.95 11.6436C35.3069 11.3612 35.7139 11.2181 36.1597 11.2181C36.6006 11.2192 37.0149 11.4319 37.273 11.787C37.8365 12.5621 38.0067 13.8298 37.7798 15.558C38.3801 15.5536 38.9568 15.8968 39.2924 16.4717C39.3402 16.5536 39.3821 16.6407 39.4178 16.7321C39.8192 16.7925 40.1962 17.0206 40.4683 17.3684C40.9618 17.2794 41.3819 17.1203 41.7488 16.8841C42.0641 16.6811 42.4658 16.6966 42.7485 16.9223C43.0614 17.1722 43.2668 17.5557 43.298 17.9482C43.3272 18.3161 43.2097 18.6567 42.9581 18.9331C42.8838 19.0148 42.7969 19.088 42.6846 19.1637C41.9086 19.6871 41.0722 20.0836 40.1959 20.344C40.2046 20.9477 40.0369 21.507 39.706 21.9716C39.3286 22.5016 38.7534 22.889 38.0328 23.1013C38.1049 23.5107 37.8715 23.9116 37.4777 24.0545C37.2884 24.1232 37.0654 24.1672 36.8131 24.186C36.1655 25.7836 35.3575 27.0518 34.3516 28.0476C36.1804 28.7027 37.5827 28.8133 38.8066 27.567C39.3191 27.045 39.7069 26.3814 39.928 25.6478C40.8751 22.5056 42.344 20.3944 44.2941 19.3728C46.0442 18.4559 48.1981 18.4016 50.696 19.2112L51.7126 19.5407C51.8225 19.5764 51.8906 19.6864 51.8734 19.8008C51.8562 19.9151 51.7588 20.0002 51.6433 20.0019L50.5748 20.0175C50.0764 20.0248 49.5999 20.072 49.1481 20.1587C51.2104 20.219 53.2494 20.7617 55.0261 21.7388C57.3123 22.9963 59.006 24.8893 59.7953 27.0692L59.9859 27.5957C60.021 27.6926 59.9892 27.8011 59.9074 27.8638C59.8256 27.9265 59.7126 27.9289 59.6282 27.8697L59.17 27.5484H59.17C58.011 26.7356 56.8162 26.2662 55.6036 26.1454C55.8161 26.2558 56.017 26.3824 56.2079 26.5256L56.5007 26.7455C56.5732 26.7999 56.6082 26.8911 56.5907 26.98C56.5733 27.069 56.5065 27.1402 56.4188 27.1632L56.0647 27.2559C50.2812 28.7716 49.8316 32.6672 49.59 34.7601C49.5869 34.7878 49.5837 34.8151 49.5806 34.8422C49.7735 34.567 49.944 34.2172 50.0902 33.7957L50.3567 33.0277C50.3931 32.9226 50.498 32.857 50.608 32.8706C50.7184 32.8839 50.8045 32.9722 50.815 33.083L50.8915 33.8923C51.1074 36.1766 50.5239 38.1312 49.204 39.5447C47.6797 41.1771 45.1918 42.0424 42.2237 41.9641C39.0738 41.8806 35.9543 40.7189 33.4401 38.693C31.6845 37.2783 30.3761 35.7051 29.2217 34.317C29.0028 34.0538 28.7782 33.7837 28.5567 33.5227C28.117 34.2051 27.6468 34.8804 27.1551 35.5355C27.1842 35.5866 27.211 35.6388 27.2354 35.6917C27.237 35.6951 27.2385 35.6986 27.2399 35.7021C27.3522 35.9805 27.3901 36.2569 27.3493 36.5015C27.296 36.9095 27.0415 37.4331 26.5041 37.544C26.2568 37.6045 26.0031 37.5444 25.7789 37.4914C25.7282 37.4793 25.6787 37.4676 25.6315 37.458C25.6269 37.4571 25.6225 37.4561 25.618 37.4549C25.6139 37.4538 25.6097 37.4527 25.6056 37.4516L25.5855 37.475C22.4652 41.0476 18.8845 43.5777 15.503 44.5993C15.3162 44.6557 15.1227 44.6843 14.9281 44.6843ZM1.07457 19.0716C0.992684 19.0716 0.913064 19.0975 0.84857 19.149C0.63586 19.3188 0.496359 19.5781 0.475315 19.8428C0.456672 20.0771 0.532152 20.2947 0.693566 20.472C0.741818 20.5249 0.801603 20.5748 0.88179 20.6288C1.66863 21.1595 2.52032 21.5526 3.41316 21.7972C3.52226 21.827 3.59488 21.9301 3.5863 22.043C3.54285 22.6171 3.67565 23.1257 3.98105 23.5544C4.33146 24.0465 4.89669 24.3945 5.61561 24.5607C5.68254 24.5762 5.73938 24.6201 5.77141 24.6809C5.80344 24.7417 5.80739 24.8134 5.7823 24.8774C5.75937 24.9359 5.74382 24.989 5.73488 25.0398C5.70249 25.223 5.808 25.4028 5.98571 25.4673C6.16609 25.5327 6.39302 25.5703 6.66016 25.5789C6.75426 25.5819 6.83763 25.6406 6.87223 25.7282C7.95864 28.481 9.55034 30.2826 11.7383 31.2359C11.7894 31.2582 11.831 31.2978 11.8557 31.3478C13.7892 35.2614 13.5913 38.4218 13.4467 40.7294C13.3932 41.5843 13.347 42.3221 13.427 42.9123C13.4857 43.3447 13.732 43.7296 14.103 43.9681C14.476 44.2082 14.9432 44.2745 15.3665 44.1467C18.6642 43.1504 22.1671 40.6705 25.2298 37.1639L25.346 37.0291C25.4062 36.9594 25.5014 36.9309 25.5897 36.9564C25.6371 36.97 25.6844 36.9834 25.7321 36.996C25.7821 37.0063 25.8342 37.0186 25.8877 37.0313C26.0694 37.0743 26.2571 37.1188 26.3943 37.0841C26.3981 37.0831 26.402 37.0822 26.4059 37.0815C26.6833 37.026 26.845 36.7152 26.8821 36.4319C26.9163 36.2259 26.8589 36.022 26.8039 35.8842C26.7673 35.8055 26.7235 35.7287 26.6738 35.6559C26.6165 35.5719 26.6193 35.4607 26.6807 35.3797C27.2649 34.609 27.8195 33.8085 28.3293 33.0005C28.3693 32.9372 28.4369 32.8965 28.5115 32.891C28.5858 32.8861 28.659 32.9156 28.7079 32.9723C28.9977 33.3086 29.2962 33.6675 29.5849 34.0146C30.7251 35.3857 32.0174 36.9397 33.7363 38.3247C36.1705 40.286 39.1891 41.4107 42.2363 41.4915C45.0655 41.5672 47.428 40.7543 48.8588 39.2219C50.0326 37.9649 50.5777 36.2342 50.4427 34.2038C50.1665 34.9024 49.8122 35.4106 49.3874 35.7163C49.3093 35.7726 49.2047 35.7757 49.1235 35.7244C49.042 35.6729 49 35.5773 49.017 35.4825C49.0561 35.2659 49.086 35.0067 49.1207 34.7066C49.3736 32.5154 49.8426 28.4507 55.8241 26.8308C55.3543 26.5012 54.814 26.2786 54.1768 26.1516C54.0626 26.1289 53.9821 26.0263 53.987 25.9098C53.9919 25.7935 54.0808 25.698 54.1965 25.6849C55.9356 25.4887 57.6467 25.9491 59.2849 27.0538C57.6682 22.8949 52.6404 20.168 47.4947 20.6895C47.3809 20.7015 47.2744 20.6288 47.2435 20.5181C47.2124 20.4074 47.2656 20.2904 47.3693 20.241C48.2082 19.8409 49.1636 19.6112 50.2139 19.5565C47.9853 18.8978 46.0689 18.9765 44.5132 19.7915C42.6798 20.752 41.2893 22.7682 40.3803 25.7842C40.1372 26.5908 39.7095 27.3218 39.1436 27.8982C37.5012 29.5706 35.5394 29.0124 33.8295 28.3579C33.7528 28.3286 33.6969 28.2615 33.6817 28.1808C33.6665 28.1002 33.6943 28.0174 33.7551 27.9622C34.8675 26.9515 35.7425 25.6133 36.4301 23.871C36.4647 23.7834 36.5481 23.7246 36.6422 23.7217C36.9093 23.713 37.1362 23.6755 37.3166 23.6101C37.4943 23.5456 37.5998 23.3659 37.5675 23.1827C37.5585 23.1319 37.543 23.0787 37.52 23.0201C37.4949 22.9561 37.4989 22.8844 37.5309 22.8236C37.5629 22.7628 37.6198 22.719 37.6867 22.7035C38.4056 22.5372 38.9708 22.1893 39.3213 21.6972C39.6267 21.2684 39.7595 20.7599 39.716 20.1858C39.7074 20.0729 39.78 19.9698 39.8891 19.9399C40.782 19.6953 41.6337 19.3023 42.4205 18.7716C42.5008 18.7175 42.5606 18.6677 42.6088 18.6147C42.7702 18.4374 42.8456 18.2199 42.827 17.9856C42.806 17.7209 42.6665 17.4615 42.4538 17.2917C42.3295 17.1924 42.1488 17.1884 42.0043 17.2815C41.5456 17.5769 41.0198 17.7658 40.397 17.859C40.306 17.8726 40.2153 17.832 40.1647 17.755C39.94 17.4128 39.5929 17.2012 39.2363 17.1891C39.135 17.1856 39.0473 17.118 39.0181 17.0209C38.9844 16.9089 38.9394 16.8043 38.8844 16.7099C38.5913 16.2078 38.0565 15.945 37.554 16.0558C37.478 16.0726 37.3986 16.0508 37.3417 15.9974C37.2849 15.9442 37.2579 15.8663 37.2697 15.7892C37.5384 14.0332 37.411 12.7802 36.891 12.065C36.7212 11.8314 36.4492 11.6914 36.1634 11.6907C35.8228 11.6907 35.5144 11.7996 35.2429 12.0143C35.1452 12.0916 35.0917 12.2127 35.0997 12.3383C35.1959 13.8481 34.9387 15.3705 34.3353 16.8631C34.2997 16.9513 34.2147 17.0095 34.1197 17.0108C33.3901 17.0212 33.0014 17.8512 32.949 18.618C32.9116 19.0932 32.9654 19.5468 33.0224 20.0271C33.0464 20.2286 33.0711 20.4371 33.0882 20.6454C33.1002 20.8173 33.1012 20.9594 33.0919 21.083C33.0832 21.1972 32.9938 21.2887 32.8799 21.3001C32.7889 21.3093 32.7132 21.3414 32.6547 21.3955C32.5965 21.4494 32.5567 21.5255 32.5364 21.6217C32.5123 21.7363 32.4085 21.8168 32.2909 21.8088C32.1739 21.8017 32.0799 21.7098 32.07 21.593C31.9673 20.3907 31.6183 19.3955 31.0328 18.635C30.9955 18.5866 30.9784 18.5257 30.9851 18.4649C31.2616 15.945 30.8384 13.3965 29.7615 11.0951C28.6804 8.78479 27.0213 6.88948 24.9636 5.61395C23.2988 4.58207 21.368 3.98663 19.3796 3.89205C19.2983 3.88822 19.2247 3.8427 19.1849 3.77171C19.145 3.70067 19.1445 3.61415 19.1836 3.54266C19.5365 2.8963 19.8009 2.28273 19.9712 1.71588C18.7066 2.64839 17.1043 3.5194 15.0804 4.37495C14.9936 4.41175 14.8932 4.39324 14.8251 4.32797C14.757 4.2627 14.7342 4.16317 14.7671 4.07478C15.2159 2.86923 15.437 1.69701 15.4252 0.587667C14.6995 1.54278 13.6926 2.44976 12.7172 3.3283C11.8185 4.13774 10.8894 4.97465 10.1873 5.84426C10.1418 5.90063 10.0761 5.93016 10.0005 5.93211C9.92817 5.93114 9.86016 5.89703 9.8161 5.83952C8.05685 3.54213 6.54662 2.28447 5.06328 1.88148C4.84679 1.82252 4.61205 1.87395 4.43487 2.01895C3.26606 2.97513 2.67484 4.07381 2.81281 5.03332C2.85779 5.34591 3.09891 5.59164 3.41286 5.64481C5.03464 5.91955 6.4193 6.42161 7.6461 7.17971C7.71853 7.22444 7.76128 7.30471 7.75801 7.38983C7.75478 7.47491 7.70602 7.55171 7.63037 7.59078C6.77243 8.03416 6.06455 8.54192 5.37995 9.03303C4.38062 9.74987 3.43428 10.4287 2.18607 10.7648C2.99948 10.9904 3.86216 11.1046 4.7539 11.1046C4.99659 11.1046 5.25669 11.0949 5.52693 11.0759C5.61334 11.0698 5.69536 11.1111 5.7421 11.1835C5.78879 11.256 5.79234 11.3481 5.75137 11.424C5.21849 12.4105 4.86254 13.4546 4.69351 14.5273C4.51973 15.6296 4.53735 16.8078 4.74592 18.029C4.75915 18.1066 4.73295 18.1857 4.67598 18.24C4.5756 18.3356 4.48878 18.4457 4.41787 18.5672C4.36283 18.6615 4.31785 18.7661 4.28427 18.8781C4.25511 18.9752 4.16733 19.0429 4.06606 19.0463C3.70946 19.0584 3.36241 19.27 3.1376 19.6122C3.08704 19.6892 2.99662 19.73 2.90528 19.7162C2.28264 19.623 1.75687 19.4341 1.29795 19.1387C1.22842 19.0939 1.15051 19.0716 1.07457 19.0716Z" fill="#000072"/>
</svg>
